<?xml version="1.0" standalone="no"?>
<!DOCTYPE svg PUBLIC "-//W3C//DTD SVG 20010904//EN"
 "http://www.w3.org/TR/2001/REC-SVG-20010904/DTD/svg10.dtd">
<svg version="1.0" xmlns="http://www.w3.org/2000/svg"
 width="850.000000pt" height="170.000000pt" viewBox="0 0 850.000000 170.000000"
 preserveAspectRatio="xMidYMid meet">

<g transform="translate(0.000000,170.000000) scale(0.100000,-0.100000)"
fill="#000000" stroke="none">
<path d="M625 1496 c-16 -7 -39 -23 -49 -35 -19 -21 -19 -21 7 -21 33 0 20 22
298 -483 132 -239 231 -409 242 -413 9 -3 25 -3 35 0 9 3 79 115 157 252 87
153 148 249 160 254 43 16 58 -4 190 -252 72 -134 134 -250 138 -256 5 -7 24
-12 43 -12 51 0 76 44 72 125 -3 56 -17 85 -188 414 -102 194 -193 357 -203
363 -13 7 -25 5 -41 -6 -13 -8 -81 -115 -152 -238 -71 -122 -139 -234 -150
-247 -39 -45 -55 -25 -199 243 -74 137 -143 258 -152 269 -47 51 -143 72 -208
43z"/>
<path d="M2479 1461 l-29 -29 0 -456 c0 -443 1 -457 20 -476 30 -30 83 -30
115 1 19 19 20 33 20 369 0 192 3 346 6 342 4 -4 72 -105 153 -224 82 -122
155 -220 166 -223 11 -4 29 -4 40 0 11 3 77 90 147 193 70 103 139 203 153
223 l26 37 0 -349 c-1 -335 0 -349 19 -368 32 -31 85 -31 115 -1 19 19 20 33
20 476 l0 456 -29 29 c-22 22 -39 29 -67 29 -50 0 -67 -20 -249 -288 -82 -122
-152 -222 -155 -222 -3 0 -77 106 -165 236 -88 130 -171 245 -184 255 -36 29
-87 25 -122 -10z"/>
<path d="M4506 1459 c-35 -41 -34 -83 3 -120 42 -42 99 -41 135 2 15 17 26 43
26 59 0 16 -11 42 -26 59 -21 26 -33 31 -69 31 -36 0 -48 -5 -69 -31z"/>
<path d="M6165 1465 l-25 -24 0 -451 c0 -519 -2 -510 83 -510 68 0 71 10 77
265 l5 224 199 -235 c110 -129 206 -240 213 -246 8 -6 28 -11 46 -10 38 1 77
40 77 78 0 26 -3 29 -216 264 -77 85 -144 161 -148 168 -6 10 46 69 177 200
116 117 188 197 192 215 13 52 -41 99 -94 82 -17 -5 -144 -134 -399 -405 l-52
-55 0 198 c0 154 -3 204 -15 226 -24 48 -81 56 -120 16z"/>
<path d="M3837 1220 c-106 -27 -195 -99 -243 -196 -27 -55 -29 -67 -29 -174 0
-110 2 -119 33 -182 38 -77 92 -130 171 -167 49 -23 68 -26 161 -26 118 0 170
17 227 73 l31 31 6 -33 c4 -18 15 -41 26 -51 27 -24 87 -22 114 4 21 21 21 26
18 349 l-3 327 -25 23 c-54 48 -134 6 -134 -69 0 -18 -3 -17 -25 10 -42 50
-122 82 -212 87 -43 2 -95 -1 -116 -6z m230 -165 c79 -40 123 -115 123 -208
-1 -90 -47 -169 -125 -210 -56 -30 -163 -29 -222 1 -162 84 -165 330 -4 414
72 38 155 39 228 3z"/>
<path d="M5064 1220 c-106 -22 -211 -101 -257 -192 -99 -195 -24 -424 171
-520 63 -31 72 -33 177 -33 102 0 115 2 175 31 187 89 263 290 187 494 -29 78
-121 169 -202 199 -67 25 -185 35 -251 21z m211 -170 c148 -81 154 -302 12
-397 -148 -99 -346 -7 -364 170 -13 123 69 234 187 258 53 10 110 0 165 -31z"/>
<path d="M7110 1215 c-161 -46 -261 -183 -263 -360 -2 -185 90 -316 256 -367
99 -30 203 -23 290 20 70 35 147 109 147 142 0 32 -18 60 -46 70 -31 12 -55 1
-95 -45 -16 -18 -52 -43 -81 -55 -129 -56 -280 18 -313 152 l-7 27 277 3 277
3 20 25 c16 20 19 33 14 73 -18 131 -96 242 -207 291 -77 35 -188 43 -269 21z
m225 -149 c47 -28 81 -75 91 -125 l7 -31 -217 0 -216 0 6 28 c33 138 200 203
329 128z"/>
<path d="M4519 1201 l-24 -19 -5 -409 c-3 -224 -9 -416 -14 -425 -4 -10 -30
-33 -57 -53 -43 -31 -49 -39 -49 -70 0 -41 36 -85 70 -85 58 0 140 64 182 143
23 41 23 48 26 469 l3 426 -22 21 c-29 26 -79 27 -110 2z"/>
<path d="M5682 1200 c-22 -21 -22 -24 -22 -354 0 -317 1 -334 19 -350 28 -25
88 -23 115 3 20 20 21 34 26 254 4 200 7 237 23 260 23 35 62 54 128 63 77 9
99 25 99 74 0 47 -18 60 -85 60 -53 0 -114 -28 -143 -65 l-21 -26 -11 40 c-6
22 -19 45 -30 51 -30 16 -75 12 -98 -10z"/>
<path d="M7639 1191 c-16 -16 -29 -38 -29 -48 0 -10 63 -164 139 -342 l140
-323 -50 -125 c-30 -76 -47 -133 -44 -144 18 -57 89 -77 128 -36 28 28 397
935 397 976 0 58 -82 92 -129 54 -18 -16 -163 -383 -202 -511 -6 -23 -15 -42
-18 -42 -3 0 -16 33 -29 72 -52 162 -173 464 -193 481 -32 26 -76 22 -110 -12z"/>
<path d="M562 1042 c-9 -9 -75 -122 -146 -251 -93 -167 -138 -238 -158 -251
-23 -13 -26 -19 -15 -28 43 -36 134 -44 192 -16 39 18 57 46 183 280 l82 151
-31 56 c-41 76 -72 94 -107 59z"/>
</g>
</svg>
