<?xml version="1.0" standalone="no"?>
<!DOCTYPE svg PUBLIC "-//W3C//DTD SVG 20010904//EN"
 "http://www.w3.org/TR/2001/REC-SVG-20010904/DTD/svg10.dtd">
<svg version="1.0" xmlns="http://www.w3.org/2000/svg"
 width="400.000000pt" height="400.000000pt" viewBox="0 0 400.000000 400.000000"
 preserveAspectRatio="xMidYMid meet">

<g transform="translate(0.000000,400.000000) scale(0.100000,-0.100000)"
fill="#000000" stroke="none">
<path d="M1343 2842 c-55 -20 -117 -62 -132 -90 -8 -15 -5 -17 28 -14 29 3 44
-2 64 -20 14 -12 98 -153 185 -313 88 -159 172 -312 187 -340 54 -98 79 -143
247 -450 94 -170 179 -318 190 -327 11 -10 33 -18 48 -18 15 0 37 8 48 18 20
16 92 140 327 557 34 61 76 136 94 168 39 68 73 97 114 97 41 0 67 -33 143
-180 222 -429 330 -628 352 -652 20 -22 35 -28 67 -28 57 0 98 44 120 125 27
107 12 153 -180 519 -83 160 -193 372 -245 471 -175 340 -181 349 -220 365
-58 24 -68 12 -316 -417 -248 -426 -260 -442 -310 -412 -26 16 -38 34 -121
189 -256 479 -353 649 -386 683 -76 76 -203 105 -304 69z"/>
<path d="M1216 2088 c-13 -13 -117 -192 -231 -398 -117 -214 -219 -387 -237
-403 -24 -23 -38 -28 -64 -25 -19 2 -34 1 -34 -2 0 -14 125 -79 172 -90 101
-25 223 22 280 107 14 21 97 169 183 328 l157 290 -43 83 c-24 46 -54 95 -66
108 -29 32 -83 32 -117 2z"/>
</g>
</svg>
